<?xml version="1.0" standalone="no"?>
<!DOCTYPE svg PUBLIC "-//W3C//DTD SVG 20010904//EN"
 "http://www.w3.org/TR/2001/REC-SVG-20010904/DTD/svg10.dtd">
<svg version="1.0" xmlns="http://www.w3.org/2000/svg"
 width="100.000000pt" height="42.000000pt" viewBox="0 0 100.000000 42.000000"
 preserveAspectRatio="xMidYMid meet">
<metadata>
Created by potrace 1.16, written by Peter Selinger 2001-2019
</metadata>
<g transform="translate(0.000000,42.000000) scale(0.100000,-0.100000)"
fill="#000000" stroke="none">
<path d="M185 414 c-13 -5 -7 -174 6 -174 5 0 9 41 9 90 0 50 -1 90 -2 89 -2
0 -7 -2 -13 -5z"/>
<path d="M401 415 c-4 -16 0 -159 5 -164 8 -9 9 6 3 89 -3 47 -6 81 -8 75z"/>
<path d="M766 329 c3 -109 14 -114 14 -6 0 48 -4 87 -8 87 -5 0 -7 -36 -6 -81z"/>
<path d="M70 393 c0 -6 11 -36 25 -67 14 -31 25 -63 25 -71 0 -8 5 -15 10 -15
15 0 13 10 -16 81 -25 63 -44 94 -44 72z"/>
<path d="M340 389 c0 -5 5 -7 10 -4 6 3 10 8 10 11 0 2 -4 4 -10 4 -5 0 -10
-5 -10 -11z"/>
<path d="M525 390 c3 -5 8 -10 11 -10 2 0 4 5 4 10 0 6 -5 10 -11 10 -5 0 -7
-4 -4 -10z"/>
<path d="M290 351 c0 -5 5 -13 10 -16 6 -3 10 -2 10 4 0 5 -4 13 -10 16 -5 3
-10 2 -10 -4z"/>
<path d="M461 339 c14 -14 20 -30 17 -49 -2 -16 -1 -27 4 -24 12 8 10 68 -4
82 -7 7 -18 12 -25 12 -8 0 -5 -8 8 -21z"/>
<path d="M530 358 c-5 -28 -3 -118 2 -118 5 0 8 27 8 60 0 33 -2 60 -5 60 -3
0 -5 -1 -5 -2z"/>
<path d="M638 307 c2 -29 7 -56 12 -60 9 -10 0 95 -9 105 -3 4 -4 -16 -3 -45z"/>
<path d="M340 295 c0 -30 5 -55 10 -55 6 0 10 25 10 55 0 30 -4 55 -10 55 -5
0 -10 -25 -10 -55z"/>
<path d="M880 343 c0 -4 5 -15 10 -23 8 -13 10 -13 10 2 0 9 -4 20 -10 23 -5
3 -10 3 -10 -2z"/>
<path d="M925 340 c-5 -8 7 -24 50 -58 8 -7 12 -18 9 -24 -4 -7 -2 -8 4 -4 22
13 12 34 -24 55 -19 12 -32 26 -29 31 3 6 4 10 1 10 -3 0 -7 -4 -11 -10z"/>
<path d="M814 315 c-8 -33 19 -75 49 -74 l22 0 -21 9 c-28 11 -37 26 -36 61 1
36 -6 37 -14 4z"/>
<path d="M231 298 c-1 -27 4 -40 18 -48 27 -14 51 -12 26 2 -28 15 -26 13 -35
50 l-8 33 -1 -37z"/>
<path d="M689 313 c-9 -28 11 -67 36 -71 19 -3 18 -2 -2 12 -13 10 -23 29 -25
49 -3 27 -4 29 -9 10z"/>
<path d="M575 280 c-4 -7 0 -19 9 -28 20 -21 26 -13 10 16 -8 16 -14 20 -19
12z"/>
<path d="M27 182 c-9 -10 -20 -32 -23 -50 -5 -26 -1 -36 24 -62 17 -16 41 -30
54 -30 32 0 68 27 68 51 0 24 -11 24 -33 -1 -42 -49 -96 -1 -71 64 8 21 63 21
70 1 4 -8 15 -15 25 -15 17 0 18 3 8 23 -16 30 -28 37 -70 37 -22 0 -42 -7
-52 -18z"/>
<path d="M460 185 c0 -8 7 -15 15 -15 8 0 15 7 15 15 0 8 -7 15 -15 15 -8 0
-15 -7 -15 -15z"/>
<path d="M742 123 c2 -50 7 -78 16 -81 9 -3 12 17 12 77 0 66 -3 81 -15 81
-13 0 -15 -13 -13 -77z"/>
<path d="M528 169 c-11 -17 -13 -37 -9 -68 7 -48 27 -68 57 -57 18 7 18 9 -3
23 -26 18 -32 63 -8 63 8 0 15 5 15 10 0 6 -5 10 -10 10 -6 0 -14 9 -18 21 -8
21 -8 21 -24 -2z"/>
<path d="M203 150 c-32 -13 -30 -34 2 -26 41 10 53 -6 14 -19 -23 -8 -35 -19
-37 -33 -4 -27 23 -40 48 -24 12 7 21 7 28 0 6 -6 19 -7 29 -3 12 5 14 9 6 12
-7 3 -13 19 -13 36 0 18 -4 37 -8 43 -11 17 -44 24 -69 14z m37 -75 c-7 -8
-16 -15 -21 -15 -5 0 -9 7 -9 15 0 9 9 15 21 15 18 0 19 -2 9 -15z"/>
<path d="M370 150 c-6 -4 -21 -5 -31 -3 -17 5 -19 -1 -19 -71 0 -61 3 -76 15
-76 10 0 15 10 15 30 0 27 2 29 19 19 38 -24 75 19 62 70 -8 26 -40 44 -61 31z
m28 -49 c4 -26 -13 -42 -35 -34 -14 5 -18 45 -6 57 14 14 38 0 41 -23z"/>
<path d="M633 150 c-35 -14 -29 -33 7 -25 40 9 38 -8 -2 -26 -36 -16 -42 -36
-16 -53 13 -8 23 -8 38 1 12 8 21 9 25 3 3 -6 12 -10 20 -10 21 0 7 81 -17
103 -23 19 -24 19 -55 7z m37 -69 c0 -14 -18 -23 -30 -16 -6 4 -8 11 -5 16 8
12 35 12 35 0z"/>
<path d="M460 95 c0 -42 3 -55 15 -55 12 0 15 13 15 55 0 42 -3 55 -15 55 -12
0 -15 -13 -15 -55z"/>
</g>
</svg>
