<?xml version="1.0" standalone="no"?>
<!DOCTYPE svg PUBLIC "-//W3C//DTD SVG 20010904//EN"
 "http://www.w3.org/TR/2001/REC-SVG-20010904/DTD/svg10.dtd">
<svg version="1.0" xmlns="http://www.w3.org/2000/svg"
 width="100.000000pt" height="15.000000pt" viewBox="0 0 100.000000 15.000000"
 preserveAspectRatio="xMidYMid meet">
<metadata>
Created by potrace 1.16, written by Peter Selinger 2001-2019
</metadata>
<g transform="translate(0.000000,15.000000) scale(0.100000,-0.100000)"
fill="#000000" stroke="none">
<path d="M80 146 c0 -2 7 -9 15 -16 12 -10 15 -10 15 4 0 9 -7 16 -15 16 -8 0
-15 -2 -15 -4z"/>
<path d="M245 75 c0 -53 4 -75 13 -75 8 0 12 22 12 75 0 53 -4 75 -12 75 -9 0
-13 -22 -13 -75z"/>
<path d="M393 80 c22 -50 33 -66 39 -56 5 9 1 32 -8 58 -21 52 -32 68 -49 68
-9 0 -4 -22 18 -70z"/>
<path d="M478 75 c-3 -69 -2 -75 17 -75 18 0 20 7 20 75 0 63 -3 75 -17 75
-14 0 -17 -13 -20 -75z"/>
<path d="M695 75 c0 -53 4 -75 13 -75 8 0 12 22 12 75 0 53 -4 75 -12 75 -9 0
-13 -22 -13 -75z"/>
<path d="M960 75 c0 -60 3 -75 15 -75 12 0 15 15 15 75 0 60 -3 75 -15 75 -12
0 -15 -15 -15 -75z"/>
<path d="M16 118 c-23 -32 -20 -65 9 -93 28 -29 43 -31 71 -10 18 14 17 14
-13 15 -39 0 -58 28 -50 76 7 40 4 42 -17 12z"/>
<path d="M313 119 c-20 -20 -17 -105 3 -113 21 -8 20 -13 14 62 -4 51 -7 61
-17 51z"/>
<path d="M643 119 c-18 -18 -16 -94 2 -109 20 -17 21 -15 15 58 -4 51 -7 61
-17 51z"/>
<path d="M750 57 c0 -42 4 -57 14 -57 10 0 12 11 9 48 -8 70 -23 76 -23 9z"/>
<path d="M142 53 c2 -25 8 -48 13 -50 6 -2 9 17 7 47 -2 27 -8 50 -14 50 -5 0
-8 -21 -6 -47z"/>
<path d="M190 50 c0 -38 4 -50 15 -50 11 0 15 12 15 50 0 38 -4 50 -15 50 -11
0 -15 -12 -15 -50z"/>
<path d="M542 88 c-17 -17 -15 -54 4 -72 19 -20 38 -20 53 -2 10 12 9 13 -8 9
-23 -6 -45 28 -36 57 7 23 4 25 -13 8z"/>
<path d="M590 81 c0 -12 5 -21 10 -21 6 0 10 6 10 14 0 8 -4 18 -10 21 -5 3
-10 -3 -10 -14z"/>
<path d="M800 80 c-9 -17 -9 -29 -1 -46 17 -38 30 -28 24 19 -7 52 -9 54 -23
27z"/>
<path d="M858 55 c3 -38 6 -44 18 -34 17 14 18 51 2 67 -20 20 -23 14 -20 -33z"/>
<path d="M909 79 c-8 -16 -8 -28 0 -45 16 -37 27 -29 26 21 0 49 -8 57 -26 24z"/>
</g>
</svg>
